<svg xmlns="http://www.w3.org/2000/svg" viewBox="76 76 2425 358" role="img" aria-label="dLight-client logo">
  <defs>
    <linearGradient id="temp" x1="0" y1="0" x2="1" y2="0">
      <stop offset="0"   stop-color="#FFD43B"/>
      <stop offset="0.5" stop-color="#FFF1DC"/>
      <stop offset="1"   stop-color="#7CACF8"/>
    </linearGradient>
  </defs>
  <!-- lamp mark -->
  <rect x="76"  y="76"  width="360" height="200" rx="100" fill="#3776AB"/>
  <rect x="104" y="104" width="304" height="144" rx="72"  fill="url(#temp)"/>
  <rect x="242" y="268" width="28"  height="146"          fill="#3776AB"/>
  <rect x="156" y="402" width="200" height="32"  rx="16"  fill="#3776AB"/>
  <!-- wordmark: dLight-client, Comfortaa Bold outlined to paths -->
  <g fill="#3C4043" transform="translate(500.0,358.82) scale(0.300000,-0.300000)">
    <path transform="translate(0.00,0.00)" d="M338 -4Q260 -4 197.5 32.5Q135 69 98.5 132.0Q62 195 62 274Q62 353 95.5 415.5Q129 478 187.0 514.5Q245 551 318 551Q377 551 427.0 526.5Q477 502 511 460V730Q511 753 525.5 767.0Q540 781 562 781Q585 781 599.0 767.0Q613 753 613 730V274Q613 195 576.5 132.0Q540 69 478.0 32.5Q416 -4 338 -4ZM338 86Q389 86 429.0 110.5Q469 135 492.0 178.0Q515 221 515 274Q515 328 492.0 370.0Q469 412 429.0 436.5Q389 461 338 461Q288 461 247.5 436.5Q207 412 183.5 370.0Q160 328 160 274Q160 221 183.5 178.0Q207 135 247.5 110.5Q288 86 338 86Z"/>
    <path transform="translate(703.00,0.00)" d="M151 0Q129 0 114.5 15.0Q100 30 100 52V729Q100 751 115.0 766.0Q130 781 151 781Q173 781 188.0 766.0Q203 751 203 729V104H565Q587 104 602.0 89.0Q617 74 617 52Q617 30 602.0 15.0Q587 0 565 0Z"/>
    <path transform="translate(1345.00,0.00)" d="M151 0Q129 0 114.5 14.5Q100 29 100 51V496Q100 519 114.5 533.0Q129 547 151 547Q174 547 188.0 533.0Q202 519 202 496V51Q202 29 188.0 14.5Q174 0 151 0ZM151 636Q124 636 104.5 655.5Q85 675 85 702Q85 729 104.5 748.5Q124 768 151 768Q178 768 197.5 748.5Q217 729 217 702Q217 675 197.5 655.5Q178 636 151 636Z"/>
    <path transform="translate(1647.00,0.00)" d="M318 -4Q243 -4 185.5 31.5Q128 67 95.0 129.5Q62 192 62 273Q62 355 97.5 417.5Q133 480 195.0 515.5Q257 551 338 551Q418 551 480.0 515.5Q542 480 577.5 417.5Q613 355 613 273H554Q554 192 523.5 129.5Q493 67 440.0 31.5Q387 -4 318 -4ZM336 -227Q265 -227 203.0 -199.0Q141 -171 98 -117Q85 -100 88.5 -82.0Q92 -64 108 -53Q126 -41 145.5 -45.0Q165 -49 177 -65Q204 -99 245.0 -118.0Q286 -137 338 -137Q386 -137 426.5 -114.0Q467 -91 491.0 -46.0Q515 -1 515 64V206L548 294L613 273V57Q613 -22 578.0 -86.5Q543 -151 480.5 -189.0Q418 -227 336 -227ZM338 86Q390 86 430.0 110.0Q470 134 492.5 176.0Q515 218 515 273Q515 328 492.5 370.5Q470 413 430.0 437.0Q390 461 338 461Q286 461 246.0 437.0Q206 413 183.0 370.5Q160 328 160 273Q160 218 183.0 176.0Q206 134 246.0 110.0Q286 86 338 86Z"/>
    <path transform="translate(2322.00,0.00)" d="M141 199Q119 199 104.5 213.5Q90 228 90 250V730Q90 753 104.5 767.0Q119 781 141 781Q164 781 178.0 767.0Q192 753 192 730V250Q192 228 178.0 213.5Q164 199 141 199ZM552 -1Q530 -1 515.5 13.5Q501 28 501 50V296Q501 353 480.0 389.0Q459 425 423.5 442.5Q388 460 342 460Q300 460 266.0 443.0Q232 426 212.0 397.5Q192 369 192 332H129Q129 395 159.5 444.5Q190 494 243.0 523.0Q296 552 362 552Q431 552 485.5 522.5Q540 493 571.5 436.0Q603 379 603 296V50Q603 28 588.5 13.5Q574 -1 552 -1ZM141 -1Q119 -1 104.5 13.5Q90 28 90 50V496Q90 519 104.5 533.0Q119 547 141 547Q164 547 178.0 533.0Q192 519 192 496V50Q192 28 178.0 13.5Q164 -1 141 -1Z"/>
    <path transform="translate(3005.00,0.00)" d="M289 0Q239 0 199.0 25.5Q159 51 136.0 95.0Q113 139 113 194V671Q113 693 127.0 707.0Q141 721 163 721Q185 721 199.0 707.0Q213 693 213 671V194Q213 154 235.0 127.0Q257 100 289 100H323Q341 100 353.5 86.0Q366 72 366 50Q366 28 349.5 14.0Q333 0 307 0ZM67 441Q46 441 33.0 453.0Q20 465 20 483Q20 503 33.0 515.0Q46 527 67 527H298Q319 527 332.0 515.0Q345 503 345 483Q345 465 332.0 453.0Q319 441 298 441Z"/>
    <path transform="translate(3406.00,0.00)" d="M87 223Q65 223 50.5 237.0Q36 251 36 273Q36 296 50.5 310.0Q65 324 87 324H310Q332 324 346.0 310.0Q360 296 360 273Q360 251 346.0 237.0Q332 223 310 223Z"/>
    <path transform="translate(3797.00,0.00)" d="M338 -4Q258 -4 195.5 32.5Q133 69 97.5 131.5Q62 194 62 273Q62 354 97.0 417.0Q132 480 193.0 515.5Q254 551 333 551Q392 551 441.0 528.5Q490 506 529 461Q543 445 539.0 428.0Q535 411 517 398Q503 388 486.0 391.5Q469 395 455 409Q406 461 333 461Q282 461 243.0 437.5Q204 414 182.0 372.0Q160 330 160 273Q160 219 182.5 177.0Q205 135 245.0 110.5Q285 86 338 86Q373 86 399.5 94.5Q426 103 448 121Q464 134 481.0 135.5Q498 137 511 126Q528 112 530.0 94.5Q532 77 518 63Q446 -4 338 -4Z"/>
    <path transform="translate(4398.00,0.00)" d="M220 0Q176 0 142.0 24.0Q108 48 89.0 89.5Q70 131 70 185V731Q70 753 84.0 767.0Q98 781 120 781Q142 781 156.0 767.0Q170 753 170 731V185Q170 148 184.0 124.0Q198 100 220 100H245Q265 100 277.5 86.0Q290 72 290 50Q290 28 271.0 14.0Q252 0 222 0Z"/>
    <path transform="translate(4698.00,0.00)" d="M151 0Q129 0 114.5 14.5Q100 29 100 51V496Q100 519 114.5 533.0Q129 547 151 547Q174 547 188.0 533.0Q202 519 202 496V51Q202 29 188.0 14.5Q174 0 151 0ZM151 636Q124 636 104.5 655.5Q85 675 85 702Q85 729 104.5 748.5Q124 768 151 768Q178 768 197.5 748.5Q217 729 217 702Q217 675 197.5 655.5Q178 636 151 636Z"/>
    <path transform="translate(5000.00,0.00)" d="M347 -4Q264 -4 199.5 31.5Q135 67 98.5 129.5Q62 192 62 273Q62 355 96.5 417.5Q131 480 192.0 515.5Q253 551 332 551Q410 551 466.0 516.5Q522 482 551.5 421.5Q581 361 581 282Q581 263 568.0 250.5Q555 238 535 238H132V318H532L491 290Q490 340 471.0 379.5Q452 419 417.0 442.0Q382 465 332 465Q275 465 234.5 440.0Q194 415 173.0 371.5Q152 328 152 273Q152 218 177.0 175.0Q202 132 246.0 107.0Q290 82 347 82Q378 82 410.5 93.5Q443 105 463 120Q478 131 495.5 131.5Q513 132 526 121Q543 106 544.0 88.0Q545 70 528 57Q494 30 443.5 13.0Q393 -4 347 -4Z"/>
    <path transform="translate(5621.00,0.00)" d="M552 -1Q530 -1 515.5 13.5Q501 28 501 50V296Q501 353 480.0 389.0Q459 425 423.5 442.5Q388 460 342 460Q300 460 266.0 443.0Q232 426 212.0 397.5Q192 369 192 332H129Q129 395 159.5 444.5Q190 494 243.0 523.0Q296 552 362 552Q431 552 485.5 522.5Q540 493 571.5 436.0Q603 379 603 296V50Q603 28 588.5 13.5Q574 -1 552 -1ZM141 -1Q119 -1 104.5 13.5Q90 28 90 50V496Q90 519 104.5 533.0Q119 547 141 547Q164 547 178.0 533.0Q192 519 192 496V50Q192 28 178.0 13.5Q164 -1 141 -1Z"/>
    <path transform="translate(6303.00,0.00)" d="M289 0Q239 0 199.0 25.5Q159 51 136.0 95.0Q113 139 113 194V671Q113 693 127.0 707.0Q141 721 163 721Q185 721 199.0 707.0Q213 693 213 671V194Q213 154 235.0 127.0Q257 100 289 100H323Q341 100 353.5 86.0Q366 72 366 50Q366 28 349.5 14.0Q333 0 307 0ZM67 441Q46 441 33.0 453.0Q20 465 20 483Q20 503 33.0 515.0Q46 527 67 527H298Q319 527 332.0 515.0Q345 503 345 483Q345 465 332.0 453.0Q319 441 298 441Z"/>
  </g>
</svg>
